# xmcd
#
# Track frame offsets: 
#        150
#        53662
#        72662
#        115487
#        139637
#        169712
#
# Disc length: 2683 seconds
#
# Revision: 1
# Processed by: cddbd v1.5.2PL0 Copyright (c) Steve Scherf et al.
# Submitted via: ExactAudioCopy v1.0b6
#
DISCID=540a7906
DTITLE=Jazz Life - The Jazz Life
DYEAR=1960
DGENRE=Jazz
TTITLE0=Roy Eldridge and Ray Brown - R and R (1960)
TTITLE1=Lightnin’ Hopkins - Black Cat (1960)
TTITLE2=Cal Massey - Father and Son (1961)
TTITLE3=Lucky Thompson - Lord, Lord am I ever gonna know (1960)
TTITLE4=Charles Mingus - Vassarlean (1960)
TTITLE5=Kenny Dorham - Oh Yeah, Oh Yeah  (1960)
EXTD=YEAR: 1960
EXTT0=
EXTT1=
EXTT2=
EXTT3=
EXTT4=
EXTT5=
PLAYORDER=
